<?xml version="1.0" standalone="no"?>
<!DOCTYPE svg PUBLIC "-//W3C//DTD SVG 20010904//EN"
 "http://www.w3.org/TR/2001/REC-SVG-20010904/DTD/svg10.dtd">
<svg version="1.0" xmlns="http://www.w3.org/2000/svg"
 width="530.000000pt" height="530.000000pt" viewBox="0 0 530.000000 530.000000"
 preserveAspectRatio="xMidYMid meet">
<metadata>
Created by potrace 1.14, written by Peter Selinger 2001-2017
</metadata>
<g transform="translate(0.000000,530.000000) scale(0.100000,-0.100000)"
fill="#000000" stroke="none">
<path d="M875 4603 c1037 -7 3213 -7 3197 -1 -9 4 -827 6 -1817 5 -990 -1
-1611 -3 -1380 -4z"/>
<path d="M335 4569 c-53 -23 -87 -47 -143 -102 -39 -39 -72 -75 -72 -78 0 -4
30 25 68 63 67 71 145 117 232 138 27 6 30 8 10 9 -14 0 -56 -13 -95 -30z"/>
<path d="M420 4576 c-85 -23 -154 -64 -217 -128 -56 -57 -65 -72 -98 -165
l-35 -102 0 -1263 0 -1263 31 -95 c23 -71 40 -104 66 -130 l35 -35 -31 44
c-17 25 -41 74 -51 110 -20 65 -20 93 -18 1386 l3 1320 34 69 c63 129 182 216
323 236 88 13 3523 12 3612 0 80 -12 144 -38 201 -82 l40 -31 -45 45 c-40 40
-57 48 -140 72 l-96 26 -1784 -1 c-1394 0 -1795 -3 -1830 -13z"/>
<path d="M4115 4580 c11 -5 27 -9 35 -9 9 0 8 4 -5 9 -11 5 -27 9 -35 9 -9 0
-8 -4 5 -9z"/>
<path d="M4185 4560 c11 -5 27 -9 35 -9 9 0 8 4 -5 9 -11 5 -27 9 -35 9 -9 0
-8 -4 5 -9z"/>
<path d="M473 4549 c-162 -21 -295 -133 -344 -288 -18 -61 -19 -103 -19 -1350
0 -1405 -3 -1336 56 -1437 35 -60 125 -141 191 -172 l58 -27 1577 -3 1577 -2
7 -23 c15 -48 90 -161 152 -228 106 -114 230 -193 382 -240 66 -21 95 -24 235
-24 140 0 169 3 235 23 292 92 506 312 586 602 28 102 26 330 -4 433 -91 316
-349 552 -664 608 l-68 12 0 876 c0 949 1 926 -55 1030 -37 67 -121 146 -189
177 -29 13 -86 29 -127 34 -90 12 -3496 11 -3586 -1z m1498 -917 c41 -21 748
-540 798 -586 88 -81 79 -208 -20 -288 -92 -74 -746 -553 -779 -570 -77 -40
-181 -9 -231 70 l-29 46 0 603 c0 573 1 606 19 641 23 45 46 66 91 86 47 21
108 20 151 -2z m2403 -1672 c51 -19 57 -51 54 -274 l-3 -204 42 39 c53 49 100
53 132 13 40 -50 31 -68 -97 -196 -157 -157 -154 -157 -297 -17 -114 111 -141
152 -126 193 23 59 85 61 146 5 l45 -42 0 220 c0 229 2 238 45 261 25 14 28
14 59 2z"/>
<path d="M4317 1944 c-14 -8 -28 -22 -31 -32 -5 -16 -4 -172 1 -172 1 0 9 13
17 29 29 55 68 50 97 -13 l19 -41 0 85 c0 124 -38 177 -103 144z"/>
<path d="M4119 1536 c-43 -21 -30 -99 20 -126 14 -7 16 -2 17 33 0 23 3 54 8
68 9 32 -10 43 -45 25z"/>
<path d="M4538 1543 c-14 -3 -15 -9 -6 -34 6 -17 8 -51 5 -77 l-5 -46 39 41
c21 23 39 49 39 56 0 16 -38 68 -48 66 -4 -1 -15 -3 -24 -6z"/>
<path d="M4295 1255 c38 -32 67 -32 102 0 l28 25 -30 -7 c-38 -9 -62 -9 -100
0 l-30 7 30 -25z"/>
<path d="M4313 4475 c66 -64 84 -90 113 -157 l34 -80 0 -883 0 -883 46 -7 c25
-3 48 -4 50 -2 3 3 -16 8 -41 11 l-45 7 0 877 0 877 -35 85 c-33 79 -43 92
-118 159 l-82 73 78 -77z"/>
<path d="M4341 4414 c15 -16 32 -40 39 -52 6 -13 14 -22 16 -19 10 10 -20 56
-50 77 l-31 23 26 -29z"/>
<path d="M86 4294 c-14 -43 -24 -79 -22 -81 2 -2 16 31 30 73 14 43 24 79 22
81 -2 2 -16 -31 -30 -73z"/>
<path d="M4417 4290 c3 -14 10 -41 14 -60 5 -19 9 -429 9 -910 l0 -875 84 -16
c274 -53 513 -254 619 -519 37 -95 57 -204 58 -327 1 -71 4 -98 9 -78 22 86
-3 275 -54 408 -32 86 -122 226 -189 295 -109 113 -306 220 -447 243 l-70 12
-1 886 c0 853 -1 887 -20 926 -10 22 -16 29 -12 15z"/>
<path d="M4481 2524 c-1 -26 3 -33 25 -37 25 -4 25 -4 6 17 -11 11 -22 28 -25
36 -3 8 -6 1 -6 -16z"/>
<path d="M4578 2453 c7 -3 16 -2 19 1 4 3 -2 6 -13 5 -11 0 -14 -3 -6 -6z"/>
<path d="M4620 2440 c8 -5 20 -10 25 -10 6 0 3 5 -5 10 -8 5 -19 10 -25 10 -5
0 -3 -5 5 -10z"/>
<path d="M4670 2420 c8 -5 20 -10 25 -10 6 0 3 5 -5 10 -8 5 -19 10 -25 10 -5
0 -3 -5 5 -10z"/>
<path d="M4755 2382 c177 -98 290 -215 387 -401 16 -31 26 -45 23 -31 -13 47
-110 193 -175 263 -60 65 -161 141 -237 181 -53 27 -52 18 2 -12z"/>
<path d="M5176 1900 c3 -14 11 -32 16 -40 6 -10 7 -7 2 10 -3 14 -11 32 -16
40 -6 10 -7 7 -2 -10z"/>
<path d="M5202 1815 c0 -16 2 -22 5 -12 2 9 2 23 0 30 -3 6 -5 -1 -5 -18z"/>
<path d="M5212 1760 c0 -14 2 -19 5 -12 2 6 2 18 0 25 -3 6 -5 1 -5 -13z"/>
<path d="M5222 1710 c0 -14 2 -19 5 -12 2 6 2 18 0 25 -3 6 -5 1 -5 -13z"/>
<path d="M61 1624 c-1 -15 30 -106 35 -101 2 2 -5 28 -15 58 -11 30 -20 49
-20 43z"/>
<path d="M5222 1500 c0 -14 2 -19 5 -12 2 6 2 18 0 25 -3 6 -5 1 -5 -13z"/>
<path d="M5191 1454 c0 -11 3 -14 6 -6 3 7 2 16 -1 19 -3 4 -6 -2 -5 -13z"/>
<path d="M5211 1454 c0 -11 3 -14 6 -6 3 7 2 16 -1 19 -3 4 -6 -2 -5 -13z"/>
<path d="M126 1439 c17 -31 160 -156 184 -163 23 -5 22 -5 -3 7 -15 7 -64 49
-109 93 -44 43 -77 72 -72 63z"/>
<path d="M5201 1414 c0 -11 3 -14 6 -6 3 7 2 16 -1 19 -3 4 -6 -2 -5 -13z"/>
<path d="M5191 1374 c0 -11 3 -14 6 -6 3 7 2 16 -1 19 -3 4 -6 -2 -5 -13z"/>
<path d="M255 1342 c17 -19 45 -40 64 -48 51 -21 51 -17 1 12 -25 14 -56 35
-70 47 -18 16 -17 13 5 -11z"/>
<path d="M5176 1314 c-4 -20 -5 -38 -3 -40 3 -3 8 11 11 32 4 20 5 38 3 40 -3
3 -8 -11 -11 -32z"/>
<path d="M5133 1251 c-12 -28 -20 -51 -17 -51 7 0 45 82 42 91 -2 6 -13 -12
-25 -40z"/>
<path d="M365 1256 c17 -7 41 -16 55 -20 20 -5 19 -3 -5 8 -16 7 -41 16 -55
20 -20 5 -19 3 5 -8z"/>
<path d="M429 1256 c30 -14 202 -16 1576 -16 l1543 0 15 -23 c15 -21 15 -21 4
11 l-11 32 -1556 0 c-855 0 -1566 3 -1580 6 -18 4 -16 1 9 -10z"/>
<path d="M5151 1233 c-10 -26 -10 -27 4 -9 8 11 15 23 15 28 0 15 -7 8 -19
-19z"/>
<path d="M1991 1223 l1546 -3 44 -82 c54 -101 68 -117 171 -208 l83 -72 -94
89 c-75 72 -104 107 -146 184 l-52 94 -1549 0 -1549 0 1546 -2z"/>
<path d="M3491 1206 c2 -2 14 -9 26 -15 19 -10 22 -9 17 4 -4 8 -15 15 -27 15
-11 0 -18 -2 -16 -4z"/>
<path d="M5110 1160 c-11 -22 -18 -40 -15 -40 2 0 14 18 25 40 11 22 18 40 15
40 -2 0 -14 -18 -25 -40z"/>
<path d="M3622 1109 c51 -93 197 -222 323 -287 162 -82 224 -97 395 -96 156 1
229 15 323 60 29 13 43 21 32 18 -11 -4 -53 -17 -93 -30 -98 -32 -228 -45
-344 -34 -148 14 -278 62 -408 150 -67 46 -188 172 -225 234 -39 67 -42 56 -3
-15z"/>
<path d="M5066 1083 c-8 -16 -43 -58 -78 -95 -35 -38 -61 -68 -57 -68 10 0
134 140 148 168 6 12 9 22 7 22 -3 0 -12 -12 -20 -27z"/>
<path d="M5015 1053 c-35 -44 -36 -46 -6 -18 29 26 58 65 48 65 -1 0 -20 -21
-42 -47z"/>
<path d="M4935 963 c-22 -19 -31 -31 -20 -25 19 9 74 63 64 62 -2 -1 -22 -17
-44 -37z"/>
<path d="M4895 909 c-4 -6 -14 -8 -22 -5 -8 3 -12 2 -9 -3 3 -5 -12 -25 -34
-45 -22 -20 -37 -36 -33 -36 10 1 120 100 111 100 -4 0 -10 -5 -13 -11z"/>
<path d="M4797 861 c-35 -23 -43 -31 -29 -31 6 0 24 11 39 25 33 28 29 31 -10
6z"/>
<path d="M3840 855 c0 -3 36 -23 80 -45 44 -22 80 -38 80 -35 0 3 -36 23 -80
45 -44 22 -80 38 -80 35z"/>
<path d="M4710 790 c-30 -16 -50 -29 -45 -29 6 0 35 13 65 29 30 16 51 29 45
29 -5 0 -35 -13 -65 -29z"/>
<path d="M4015 762 c14 -12 96 -34 103 -28 3 3 1 6 -4 6 -5 0 -31 7 -59 15
-27 9 -45 12 -40 7z"/>
<path d="M4615 750 c-13 -6 -15 -9 -5 -9 8 0 22 4 30 9 18 12 2 12 -25 0z"/>
<path d="M4557 734 c-3 -3 -39 -9 -79 -14 -70 -7 -70 -7 -18 -8 49 0 159 24
119 27 -9 1 -18 -2 -22 -5z"/>
<path d="M4145 720 c19 -8 103 -14 94 -6 -2 2 -29 6 -59 9 -34 3 -47 2 -35 -3z"/>
<path d="M4287 703 c18 -2 50 -2 70 0 21 2 7 4 -32 4 -38 0 -55 -2 -38 -4z"/>
</g>
</svg>
